<svg xmlns="http://www.w3.org/2000/svg" viewBox="0 0 1200 900" role="img" aria-labelledby="t d"><title id="t">JJ's SmokeHouse Bar &amp; Grill</title><desc id="d">Seminole Oklahoma smokehouse logo with flame, forks and ornate western badge.</desc><g stroke="#111" stroke-width="11" stroke-linejoin="round" stroke-linecap="round"><path fill="#fff" d="M202 209l-78-90 16-13 81 83-23-106 21-5 31 107 17-113 22 4-17 121-70 64z"/><path fill="#fff" d="M998 209l78-90-16-13-81 83 23-106-21-5-31 107-17-113-22 4 17 121 70 64z"/><path fill="#050505" d="M112 352h208l55-91h450l55 91h208l-58 93H170z"/><path fill="#050505" d="M35 457h1130l-41 44 41 44H35l41-44z"/><path fill="#050505" d="M80 504c87 12 175 21 264 27 84 6 169 9 256 9s172-3 256-9c89-6 177-15 264-27l-62 206c-154 43-307 64-458 64s-304-21-458-64z"/></g><g fill="none" stroke="#fff" stroke-width="7"><path d="M167 376h184l49-78h400l49 78h184"/><path d="M102 535c173 30 339 44 498 44s325-14 498-44"/><path d="M167 689c144 33 289 50 433 50s289-17 433-50"/><path d="M169 337c33-68 89-90 137-58-43 5-66 29-69 64 33-43 70-50 110-19"/><path d="M1031 337c-33-68-89-90-137-58 43 5 66 29 69 64-33-43-70-50-110-19"/><path d="M254 719c31 68 87 89 133 58-39-6-63-30-67-64 31 43 70 50 110 19"/><path d="M946 719c-31 68-87 89-133 58 39-6 63-30 67-64-31 43-70 50-110 19"/></g><circle cx="600" cy="188" r="146" fill="#050505" stroke="#111" stroke-width="12"/><circle cx="600" cy="188" r="124" fill="none" stroke="#fff" stroke-width="8"/><path fill="#d60000" d="M599 80c-29 43-8 63-40 99-33 37-20 91 23 112-8-27 5-48 23-67 23-25 31-54 18-85 35 24 49 69 26 109 38-26 53-76 27-112-20-28-48-35-77-56z"/><text x="600" y="224" text-anchor="middle" font-family="Georgia,serif" font-size="118" font-weight="700" fill="#fff" stroke="#111" stroke-width="3">JJ'S</text><text x="600" y="418" text-anchor="middle" font-family="Georgia,serif" font-size="66" font-weight="700" fill="#fff">SEMINOLE, OK</text><text x="600" y="666" text-anchor="middle" font-family="Georgia,serif" font-size="174" font-weight="700" fill="#fff" stroke="#111" stroke-width="2">SMOKEHOUSE</text><text x="600" y="735" text-anchor="middle" font-family="Georgia,serif" font-size="46" font-weight="700" letter-spacing="9" fill="#fff">BAR &amp; GRILL</text></svg>