<svg xmlns="http://www.w3.org/2000/svg" viewBox="0 0 1200 1100" role="img" aria-labelledby="title desc"><title id="title">JJ's SmokeHouse Bar &amp; Grill</title><desc id="desc">Vintage black, cream and burgundy smokehouse badge for JJ's SmokeHouse Bar and Grill in Seminole, Oklahoma.</desc><defs><filter id="shadow" x="-20%" y="-20%" width="140%" height="140%"><feDropShadow dx="0" dy="16" stdDeviation="14" flood-color="#000" flood-opacity=".34"/></filter><linearGradient id="wine" x1="0" y1="0" x2="0" y2="1"><stop stop-color="#a33a35"/><stop offset="1" stop-color="#6f1716"/></linearGradient></defs><g filter="url(#shadow)"><path d="M600 42c118 0 214 69 252 169h101l23 87h103l38 104 68 54-34 91 34 91-68 54-38 104H976l-23 87H852c-38 100-134 169-252 169s-214-69-252-169H247l-23-87H121L83 692l-68-54 34-91-34-91 68-54 38-104h103l23-87h101C386 111 482 42 600 42z" fill="#080a0a" stroke="#6f1716" stroke-width="18"/><path d="M600 65c107 0 194 63 228 154h108l22 83h105l31 87 64 51-31 82 31 82-64 51-31 87H958l-22 83H828c-34 91-121 154-228 154s-194-63-228-154H264l-22-83H137l-31-87-64-51 31-82-31-82 64-51 31-87h105l22-83h108C406 128 493 65 600 65z" fill="none" stroke="#f5ead5" stroke-width="12"/><path d="M600 96c88 0 159 71 159 159H441c0-88 71-159 159-159z" fill="#080a0a" stroke="#f5ead5" stroke-width="9"/><path d="M602 118c-28 48-10 70-42 108-26 31-23 77 7 104-4-25 8-44 28-63 22-22 29-47 19-75 32 22 43 61 24 95 34-25 46-70 22-103-17-23-37-31-58-66z" fill="url(#wine)"/><g fill="none" stroke="#f5ead5" stroke-width="12" stroke-linecap="round" stroke-linejoin="round"><path d="M250 337L123 207m0 0 23-22m-23 22-37-56m37 56 53-40m774 170 127-130m0 0-23-22m23 22 37-56m-37 56-53-40"/><path d="M183 405h834M119 474h962M126 711c145 52 303 78 474 78s329-26 474-78"/></g><text x="600" y="329" text-anchor="middle" font-family="Georgia,serif" font-size="152" font-weight="700" fill="#f5ead5" stroke="#6f1716" stroke-width="5" paint-order="stroke">JJ'S</text><text x="600" y="610" text-anchor="middle" font-family="Georgia,serif" font-size="178" font-weight="700" letter-spacing="-5" fill="#f5ead5" stroke="#6f1716" stroke-width="5" paint-order="stroke">SMOKEHOUSE</text><path d="M286 670h628l-38 126H324z" fill="url(#wine)" stroke="#f5ead5" stroke-width="9"/><text x="600" y="757" text-anchor="middle" font-family="Georgia,serif" font-size="66" font-weight="700" letter-spacing="11" fill="#fffaf0">BAR &amp; GRILL</text><path d="M509 857h182" stroke="#f5ead5" stroke-width="8" stroke-linecap="round"/><path d="M600 824l14 29 32 5-23 23 5 32-28-15-28 15 5-32-23-23 32-5z" fill="#9b302e"/><text x="600" y="980" text-anchor="middle" font-family="Georgia,serif" font-size="48" font-weight="700" letter-spacing="12" fill="#f5ead5">SEMINOLE, OK</text></g></svg>